<?xml version="1.0" standalone="no"?>
<!DOCTYPE svg PUBLIC "-//W3C//DTD SVG 20010904//EN"
 "http://www.w3.org/TR/2001/REC-SVG-20010904/DTD/svg10.dtd">
<svg version="1.0" xmlns="http://www.w3.org/2000/svg"
 width="1016.000000pt" height="1016.000000pt" viewBox="0 0 1016.000000 1016.000000"
 preserveAspectRatio="xMidYMid meet">
<metadata>
Created by potrace 1.14, written by Peter Selinger 2001-2017
</metadata>
<g transform="translate(0.000000,1016.000000) scale(0.100000,-0.100000)"
fill="#000000" stroke="none">
<path d="M4958 9374 c-3 -2 -65 -7 -139 -9 -223 -9 -285 -16 -424 -47 -49 -11
-97 -21 -105 -23 -8 -2 -16 -4 -17 -5 -2 -2 -6 -3 -10 -4 -117 -24 -526 -218
-541 -258 -2 -4 -8 -8 -14 -8 -22 0 -214 -156 -311 -254 -67 -67 -119 -126
-180 -201 -32 -40 -140 -201 -163 -245 -11 -19 -22 -37 -25 -40 -9 -8 -89
-181 -119 -255 -51 -132 -103 -307 -115 -395 -3 -25 -8 -56 -10 -70 -1 -14 -4
-25 -5 -25 -3 0 -6 -20 -16 -120 -9 -97 -10 -313 -1 -415 5 -64 11 -107 32
-245 1 -11 10 -50 18 -86 9 -37 18 -78 21 -90 26 -126 101 -291 193 -423 109
-158 368 -388 536 -479 23 -12 44 -24 47 -27 9 -10 214 -107 285 -135 39 -15
79 -31 90 -36 26 -11 286 -87 300 -87 3 -1 29 -6 58 -11 89 -19 101 -21 137
-26 19 -3 51 -7 70 -10 125 -17 219 -23 505 -30 340 -8 810 -28 810 -35 0 -1
20 -3 45 -5 71 -4 150 -14 215 -26 33 -7 69 -13 80 -15 72 -12 100 -19 185
-48 52 -18 112 -40 133 -50 l38 -17 -15 30 c-33 62 -160 136 -356 206 -58 21
-112 40 -120 43 -8 3 -19 6 -25 8 -19 6 -120 35 -135 39 -8 2 -16 4 -17 5 -3
3 -8 4 -48 14 -16 4 -41 12 -55 17 -14 5 -36 11 -50 14 -14 3 -72 16 -130 30
-116 27 -318 71 -365 79 -16 3 -70 12 -120 21 -96 16 -152 25 -200 29 -176 18
-435 104 -655 219 -105 55 -213 128 -324 217 -81 66 -211 211 -264 295 -17 28
-36 55 -41 61 -8 10 -70 136 -102 209 -10 23 -56 195 -63 240 -25 145 -26 416
-2 595 18 127 19 136 52 273 2 9 6 25 8 35 14 64 68 222 103 302 34 77 88 185
95 188 5 2 8 8 8 13 0 9 72 131 91 152 5 7 33 44 61 82 64 87 301 325 323 325
3 0 15 9 26 19 12 11 49 36 83 57 33 21 63 40 66 43 15 17 205 102 280 125 30
10 62 20 70 23 8 4 17 7 20 8 6 1 91 19 105 21 6 1 12 3 15 4 83 31 433 26
640 -10 30 -5 69 -12 85 -15 50 -8 68 -12 115 -26 25 -7 50 -13 57 -15 20 -4
147 -46 158 -53 6 -3 12 -6 15 -6 3 0 52 -23 110 -52 238 -117 402 -257 616
-526 8 -9 14 -21 14 -26 0 -5 4 -11 9 -13 25 -9 203 -329 266 -478 15 -36 35
-81 43 -100 9 -19 16 -39 18 -45 1 -5 20 -66 43 -135 23 -69 46 -140 52 -159
6 -19 25 -82 41 -140 43 -156 39 -142 81 -326 24 -104 29 -128 42 -207 3 -18
11 -58 16 -88 6 -30 12 -77 14 -105 2 -27 4 -50 5 -50 5 0 12 -96 13 -193 2
-107 3 -113 22 -110 20 3 20 11 20 1291 1 708 0 1287 -1 1287 -1 0 -12 -33
-24 -72 -42 -140 -109 -250 -192 -314 -38 -30 -101 -37 -177 -20 -54 12 -145
88 -326 270 -104 106 -224 222 -266 258 -129 111 -281 206 -424 262 -38 16
-79 32 -90 36 -45 19 -252 66 -330 76 -16 2 -43 6 -60 9 -38 7 -521 15 -527 9z"/>
<path d="M4847 8921 c-10 -4 16 -12 109 -34 49 -12 152 -78 197 -127 69 -74
92 -142 92 -265 -1 -114 -3 -122 -60 -230 -79 -149 -153 -287 -272 -505 -44
-80 -82 -152 -86 -160 -4 -8 -16 -29 -26 -47 -11 -17 -39 -67 -62 -110 -23
-43 -76 -139 -117 -213 -41 -74 -82 -148 -90 -165 -8 -16 -24 -42 -34 -57 -11
-16 -17 -28 -14 -28 3 0 -10 -25 -29 -55 -19 -30 -35 -57 -35 -61 0 -3 -15
-32 -34 -63 -18 -31 -52 -92 -76 -136 -23 -44 -46 -84 -50 -90 -4 -5 -29 -50
-55 -100 -27 -49 -59 -107 -72 -127 -13 -21 -20 -38 -16 -38 5 0 4 -4 -2 -8
-12 -8 -55 -86 -55 -98 0 -5 24 -25 53 -44 28 -19 54 -37 57 -40 3 -3 39 -27
80 -54 41 -27 84 -58 96 -68 26 -23 24 -26 104 127 35 66 75 143 90 170 15 28
49 93 76 145 27 52 52 98 57 101 5 3 8 9 8 13 -1 6 26 61 99 198 19 36 55 106
80 155 25 48 47 90 50 93 11 11 41 70 35 70 -4 0 2 12 13 28 11 15 63 113 117
217 54 105 102 192 107 193 4 2 8 11 8 21 0 9 4 21 9 26 4 6 37 64 71 130 118
226 153 290 163 297 19 12 36 -4 62 -55 14 -29 33 -64 43 -79 9 -15 48 -80 87
-145 38 -65 73 -119 77 -121 4 -2 8 -8 8 -12 0 -9 180 -311 191 -320 3 -3 8
-10 10 -15 4 -12 67 -117 155 -258 30 -48 54 -92 54 -98 0 -5 3 -9 8 -9 4 0
22 -26 40 -57 37 -66 43 -76 92 -153 20 -30 50 -80 68 -110 18 -30 38 -64 45
-75 7 -10 35 -56 62 -100 28 -45 56 -90 63 -101 6 -10 18 -30 24 -44 7 -14 18
-31 25 -38 7 -7 13 -17 13 -22 0 -5 6 -15 13 -22 30 -31 51 -94 50 -154 0 -76
-25 -130 -73 -162 -30 -20 -44 -23 -100 -19 -61 4 -89 9 -150 23 -28 7 -35 8
-135 23 -64 10 -112 16 -205 26 -236 26 -672 26 -697 1 -12 -11 13 -26 50 -31
59 -8 201 -21 307 -30 88 -7 170 -17 275 -35 39 -7 81 -14 95 -16 80 -11 381
-97 455 -129 69 -30 120 -52 125 -52 4 0 86 -43 195 -102 50 -28 199 -133 261
-186 70 -59 184 -173 229 -230 22 -28 43 -52 46 -55 4 -3 15 -19 25 -37 11
-17 53 -85 94 -149 41 -65 77 -123 79 -129 2 -5 7 -12 10 -15 12 -10 61 -90
61 -99 0 -5 4 -11 8 -13 7 -2 114 -167 147 -226 6 -10 30 -49 55 -87 24 -39
49 -78 55 -88 5 -9 71 -114 145 -232 385 -614 389 -621 396 -691 7 -70 -13
-129 -61 -177 -30 -29 -142 -87 -168 -87 -9 0 -18 -3 -21 -8 -2 -4 12 -6 32
-6 38 2 779 12 1476 19 219 3 401 6 402 8 2 2 -2 4 -9 5 -26 2 -82 10 -82 12
0 1 -15 3 -33 6 -18 2 -42 9 -53 15 -12 6 -23 8 -26 5 -4 -3 -12 -1 -20 5 -7
6 -13 8 -13 4 0 -4 -7 -2 -15 5 -8 7 -15 10 -15 7 0 -8 -121 38 -210 80 -41
20 -78 37 -82 37 -4 1 -13 7 -19 13 -7 7 -19 13 -26 13 -7 0 -13 5 -13 10 0 6
-5 10 -11 10 -10 0 -129 77 -139 90 -3 4 -10 9 -16 11 -29 10 -181 151 -261
243 -13 13 -77 98 -143 188 -66 90 -124 168 -130 175 -5 7 -10 16 -10 22 0 5
-4 11 -9 13 -7 3 -317 455 -346 506 -15 25 -69 106 -75 112 -3 3 -11 17 -19
33 -8 15 -18 27 -23 27 -4 0 -8 5 -8 10 0 6 -27 51 -60 100 -33 49 -60 94 -60
100 0 5 -4 10 -9 10 -5 0 -16 15 -25 34 -8 18 -22 39 -31 46 -8 7 -15 16 -15
21 0 5 -27 50 -60 100 -33 50 -60 94 -60 99 0 5 -3 10 -7 12 -9 3 -108 156
-130 201 -8 15 -19 27 -24 27 -5 0 -8 3 -7 8 1 4 -11 27 -26 52 -68 106 -101
158 -135 210 -19 30 -36 57 -36 60 0 3 -18 32 -40 65 -21 33 -48 76 -60 95
-60 97 -99 158 -116 182 -11 15 -19 30 -19 33 0 3 -8 18 -19 33 -32 47 -107
166 -127 202 -10 19 -22 37 -26 40 -4 3 -13 17 -20 30 -18 35 -271 444 -278
450 -3 3 -17 27 -30 53 -14 26 -33 57 -42 67 -10 11 -18 23 -18 27 0 4 -20 39
-45 76 -25 38 -45 70 -45 72 0 2 -45 76 -100 165 -55 89 -100 166 -100 170 0
5 -6 15 -13 22 -18 18 -77 116 -77 127 0 5 -3 11 -7 13 -5 2 -26 32 -47 68
-22 36 -88 144 -148 242 -59 97 -108 179 -108 182 0 4 -5 12 -11 19 -6 7 -20
29 -32 50 -48 82 -211 352 -217 357 -9 9 -41 65 -47 83 -3 9 -9 17 -13 17 -4
0 -10 8 -13 18 -4 9 -18 35 -32 57 -13 22 -28 46 -32 54 -3 8 -21 37 -39 64
l-33 50 -88 1 c-48 1 -94 -3 -100 -8 -8 -5 -13 -5 -13 0 0 11 -91 11 -108 0
-7 -4 -12 -4 -12 1 0 10 -91 10 -108 -1 -7 -4 -12 -4 -12 1 0 8 -279 12 -303
4z"/>
<path d="M2633 6514 c-9 -25 -11 -117 -3 -134 1 -3 2 -9 1 -14 -6 -34 157
-447 189 -476 3 -3 14 -22 25 -43 56 -108 252 -323 401 -440 174 -137 408
-271 639 -367 44 -18 94 -39 110 -46 24 -10 189 -63 218 -70 4 -1 8 -2 10 -4
1 -1 10 -3 21 -5 10 -2 39 -9 65 -15 46 -10 70 -15 124 -25 15 -3 60 -7 98
-10 38 -2 74 -7 79 -10 6 -4 10 -1 10 5 0 6 3 9 8 6 4 -2 79 -7 167 -11 88 -3
174 -8 190 -9 17 -2 59 -7 95 -10 36 -4 81 -9 100 -11 98 -13 127 -17 145 -20
11 -2 38 -6 60 -10 54 -8 145 -24 171 -29 12 -2 38 -7 59 -10 154 -25 358 -96
507 -178 81 -44 294 -182 308 -199 3 -3 24 -18 48 -33 97 -61 215 -171 295
-276 23 -30 45 -56 50 -58 4 -2 7 -10 7 -18 0 -8 5 -14 10 -14 6 0 10 -9 10
-20 0 -11 4 -20 8 -20 8 0 49 -77 50 -94 0 -5 4 -12 10 -15 20 -13 107 -271
118 -351 1 -14 8 -50 14 -80 30 -151 34 -565 7 -695 -3 -11 -8 -42 -11 -70
-16 -110 -108 -416 -127 -423 -5 -2 -9 -10 -9 -17 0 -26 -120 -247 -185 -341
-64 -92 -90 -125 -147 -187 -16 -17 -28 -34 -28 -38 0 -5 -4 -9 -9 -9 -5 0
-31 -22 -57 -48 -86 -84 -284 -232 -312 -232 -6 0 -12 -3 -14 -8 -1 -4 -41
-24 -88 -45 -47 -21 -93 -43 -104 -48 -36 -20 -203 -70 -299 -89 -148 -31
-238 -39 -402 -39 -184 0 -244 6 -445 45 -68 13 -166 40 -265 72 -60 20 -113
35 -117 34 -5 -1 -8 3 -8 10 0 6 -3 9 -6 6 -5 -6 -30 3 -134 49 -171 75 -381
192 -540 302 -191 131 -239 173 -388 337 -352 385 -475 504 -692 670 -101 77
-238 168 -315 209 -38 20 -74 40 -80 45 -5 4 -35 17 -65 28 -30 11 -68 26 -85
33 -16 6 -34 13 -40 14 -63 14 -136 28 -160 31 -16 1 -64 6 -105 11 -129 14
-401 7 -490 -12 -14 -3 -43 -7 -65 -10 -39 -4 -61 -8 -115 -20 -14 -4 -36 -8
-50 -11 -66 -13 -200 -55 -265 -83 -115 -50 -360 -183 -385 -211 -3 -3 -25
-21 -50 -40 -25 -19 -54 -45 -65 -58 -11 -13 -30 -34 -42 -47 -34 -35 -28 -49
9 -23 18 13 35 25 38 28 13 13 193 105 280 143 43 19 175 67 198 72 9 2 42 11
72 19 30 9 80 20 110 26 30 5 69 12 85 15 17 3 48 8 70 11 22 2 49 7 60 9 90
18 503 27 600 12 97 -15 214 -47 297 -80 74 -31 108 -48 223 -113 132 -75 380
-304 565 -524 30 -36 60 -69 67 -75 12 -11 70 -79 123 -145 19 -24 45 -54 58
-67 13 -13 20 -23 18 -23 -3 0 7 -12 22 -27 15 -16 40 -44 56 -63 88 -109 228
-238 366 -338 47 -34 95 -70 108 -79 32 -23 62 -40 95 -55 15 -7 27 -16 27
-20 0 -4 6 -8 14 -8 7 0 19 -7 26 -15 7 -9 15 -13 18 -10 3 3 11 0 17 -5 18
-15 197 -101 290 -140 132 -55 138 -57 180 -71 22 -7 42 -14 45 -14 3 -1 12
-5 20 -8 8 -3 40 -13 70 -22 30 -9 66 -21 80 -25 26 -9 216 -57 260 -65 24 -5
103 -19 165 -30 17 -2 39 -7 50 -9 138 -27 714 -28 855 -1 14 3 43 7 65 10 43
5 55 7 130 25 28 6 57 13 65 15 42 8 109 28 141 40 20 8 39 11 43 8 3 -4 6 -1
6 5 0 7 3 11 8 10 12 -3 122 35 122 42 0 4 6 7 13 7 16 0 273 128 287 143 3 3
30 21 60 40 30 18 60 38 65 45 6 6 26 21 45 33 19 11 47 32 62 44 14 13 46 39
69 58 87 71 297 290 323 338 5 10 12 19 15 22 16 12 81 109 81 119 0 6 4 11 9
11 5 0 13 9 16 20 3 11 12 26 18 32 16 17 107 200 107 214 0 6 7 17 15 24 8 6
14 15 13 18 -2 4 9 39 24 77 28 75 65 195 73 235 3 14 7 36 10 50 11 51 15 77
26 145 6 39 12 81 14 94 17 100 24 419 12 516 -7 52 -16 114 -22 145 -3 14 -8
39 -11 55 -2 17 -9 45 -14 63 -4 17 -6 32 -3 32 3 0 0 6 -6 14 -6 8 -10 18 -9
22 5 14 -58 210 -99 309 -34 85 -112 243 -141 290 -61 96 -79 123 -122 180
-81 108 -192 226 -279 295 -24 19 -49 41 -56 48 -8 6 -18 12 -23 12 -6 0 -12
4 -14 9 -5 12 -137 95 -215 134 -94 48 -237 105 -265 107 -4 1 -23 7 -43 16
-19 8 -35 12 -35 10 0 -3 -16 2 -35 10 -19 8 -35 12 -35 9 0 -2 -11 0 -26 5
-14 6 -42 12 -62 15 -20 3 -49 7 -64 10 -16 3 -38 7 -50 9 -13 2 -34 7 -48 10
-14 4 -38 8 -55 10 -16 2 -46 6 -65 10 -77 13 -86 15 -105 19 -11 3 -41 7 -66
11 -25 4 -57 9 -70 11 -193 33 -240 40 -409 61 -19 2 -147 6 -285 9 -284 5
-385 9 -630 29 -33 3 -91 8 -128 11 -124 9 -212 19 -272 30 -81 14 -211 44
-235 52 -8 4 -19 7 -25 8 -68 15 -343 132 -365 155 -3 3 -16 11 -30 18 -44 22
-69 38 -88 55 -10 10 -22 17 -26 17 -4 0 -13 6 -20 13 -7 6 -28 23 -47 37
-138 103 -288 267 -395 435 -41 63 -130 236 -152 295 -8 19 -18 44 -22 55 -5
11 -14 38 -21 60 -6 22 -17 53 -24 69 l-12 30 -10 -30z"/>
<path d="M3454 5033 c-58 -98 -184 -338 -184 -349 0 -7 -4 -14 -8 -16 -7 -3
-67 -112 -101 -185 -8 -18 -19 -33 -23 -33 -4 0 -8 -4 -8 -10 0 -15 -169 -359
-208 -425 -66 -108 -101 -153 -183 -234 -83 -81 -105 -101 -118 -101 -6 0 -11
-4 -11 -9 0 -8 -112 -81 -126 -81 -4 0 -15 -7 -24 -15 -10 -9 -26 -17 -36 -20
-11 -2 -38 -13 -61 -24 -75 -37 -217 -74 -338 -87 -73 -8 -247 -9 -252 -1 -2
4 -9 4 -15 1 -6 -4 -52 -8 -102 -10 -315 -11 -612 -96 -916 -265 -154 -86
-333 -233 -468 -385 -24 -27 -52 -59 -63 -70 -10 -12 -19 -26 -19 -32 0 -6 -4
-12 -8 -14 -18 -7 -162 -232 -162 -252 0 -4 23 21 51 56 162 202 363 368 602
496 42 23 77 39 77 35 0 -5 4 -3 8 3 9 14 214 94 279 109 10 2 52 13 93 24
152 40 283 55 475 55 202 0 342 -17 505 -60 30 -9 62 -17 70 -19 8 -2 47 -16
85 -30 39 -15 79 -30 90 -33 34 -10 188 -89 270 -139 212 -128 396 -302 577
-543 64 -85 153 -192 199 -237 122 -119 133 -128 274 -234 167 -125 233 -171
295 -206 95 -54 310 -162 310 -156 0 3 6 0 13 -6 13 -10 133 -58 167 -67 8 -2
33 -8 55 -14 68 -19 208 -46 283 -55 123 -14 362 -24 362 -15 0 3 17 4 37 4
35 -1 75 3 193 21 146 22 342 86 490 159 105 52 151 77 160 86 14 14 102 70
110 70 6 0 10 4 10 8 0 5 20 23 44 40 71 51 276 260 276 281 0 5 4 11 8 13 11
4 101 134 109 156 4 10 15 29 25 44 19 27 99 201 102 222 1 6 4 16 7 21 5 9
16 44 24 80 2 6 10 38 19 73 9 35 19 80 21 100 2 20 8 70 13 110 8 75 8 213
-2 312 -21 216 -116 482 -237 664 -21 32 -39 61 -39 65 0 3 -8 11 -19 18 -18
11 -18 10 1 -29 11 -22 30 -82 43 -132 105 -407 -9 -828 -305 -1127 -99 -99
-197 -174 -290 -221 -36 -18 -67 -35 -70 -39 -9 -9 -173 -67 -238 -84 -98 -25
-135 -28 -297 -29 -168 -1 -257 9 -350 37 -138 43 -325 126 -333 148 -2 5 -8
9 -14 9 -18 0 -155 109 -216 173 -91 94 -192 228 -192 256 0 6 -4 11 -8 11 -6
0 -18 21 -37 70 -10 27 -44 94 -44 89 -2 -10 52 -154 59 -159 3 -3 12 -21 20
-40 8 -19 16 -37 19 -40 4 -3 13 -18 21 -35 8 -16 17 -32 20 -35 3 -3 23 -30
44 -60 85 -120 258 -278 361 -330 17 -8 32 -18 35 -21 10 -12 140 -68 215 -94
200 -67 436 -86 625 -49 14 2 34 6 45 8 11 2 47 11 80 20 33 9 67 19 77 21 9
2 30 11 47 19 17 9 33 16 36 17 2 0 23 8 46 18 102 46 239 -12 286 -119 20
-46 19 -130 -2 -170 -50 -97 -152 -210 -240 -267 -28 -18 -55 -37 -62 -43 -7
-5 -16 -10 -21 -10 -4 0 -32 -12 -62 -26 -30 -14 -62 -28 -72 -30 -10 -2 -26
-6 -35 -9 -86 -24 -138 -36 -198 -44 -72 -10 -365 -8 -445 4 -158 22 -368 80
-510 140 -84 35 -114 47 -119 45 -2 -1 -7 2 -10 7 -3 5 -27 19 -52 31 -48 22
-218 122 -255 151 -12 9 -32 23 -44 31 -65 43 -235 192 -284 248 -6 7 -22 25
-36 40 -14 15 -39 45 -55 67 -17 22 -32 42 -35 45 -3 3 -24 30 -48 60 -23 30
-46 60 -50 65 -5 6 -17 24 -28 40 -10 17 -21 32 -25 35 -33 26 -210 360 -225
425 -4 17 -11 35 -15 41 -5 6 -10 19 -12 30 -2 10 -10 39 -17 64 -8 25 -14 47
-15 50 -6 23 -16 70 -20 95 -3 17 -7 41 -11 55 -9 43 -11 271 -2 319 5 25 10
60 13 76 7 53 79 229 105 255 5 5 23 38 68 125 14 28 28 52 31 55 5 4 18 27
65 115 6 11 13 22 16 25 3 3 17 27 30 53 50 96 161 179 283 211 70 18 205 15
267 -7 25 -8 77 -27 115 -42 39 -15 77 -28 86 -30 9 -2 34 -8 55 -14 62 -18
150 -26 284 -26 170 1 259 14 397 60 71 24 243 101 243 109 0 2 -21 -1 -47 -6
-27 -5 -64 -11 -83 -14 -19 -3 -38 -8 -42 -10 -27 -17 -386 -25 -513 -12 -33
3 -60 7 -60 8 0 1 -16 3 -36 5 -132 14 -410 106 -564 186 -80 41 -282 172
-320 206 -11 10 -39 33 -62 51 l-41 32 -28 -47z"/>
</g>
</svg>
