<?xml version="1.0" encoding="UTF-8" standalone="no"?>
<svg
   version="1.1"
   id="blob"
   sodipodi:docname="button (copy).svg"
   inkscape:version="1.1 (ce6663b3b7, 2021-05-25)"
   xmlns:inkscape="http://www.inkscape.org/namespaces/inkscape"
   xmlns:sodipodi="http://sodipodi.sourceforge.net/DTD/sodipodi-0.dtd"
   xmlns="http://www.w3.org/2000/svg"
   xmlns:svg="http://www.w3.org/2000/svg">
  <defs
     id="defs60" />
  <sodipodi:namedview
     id="namedview58"
     pagecolor="#505050"
     bordercolor="#eeeeee"
     borderopacity="1"
     inkscape:pageshadow="0"
     inkscape:pageopacity="0"
     inkscape:pagecheckerboard="0"
     showgrid="false"
     inkscape:zoom="0.088388348"
     inkscape:cx="-5707.7659"
     inkscape:cy="333.7544"
     inkscape:window-width="1920"
     inkscape:window-height="1006"
     inkscape:window-x="0"
     inkscape:window-y="0"
     inkscape:window-maximized="1"
     inkscape:current-layer="blob" />
  <path
     d="m 1283.944,2292.1293 c 163.0569,103.9512 306.5279,313.9631 452.9328,0 215.9406,-163.9085 215.9406,-584.0332 0,-747.9416 -146.4049,-111.1311 -306.5267,-111.1311 -452.9328,0 -215.9401,163.9084 -163.055,643.9904 0,747.9416 z M 952.57647,-568.11249 c -185.52074,0 -376.53389,50.91049 -787.44406,59.78818 -436.39863,-134.60891 -824.39261,118.54899 -838.75547,444.32833 -13.83698,313.85104 -91.43401,451.04397 -62.5122,867.84892 -163.67362,405.66306 163.05586,466.51286 163.05586,791.04296 0,324.5305 -317.05281,253.5393 -217.40782,638.9196 99.6453,385.3791 471.05014,212.9727 636.8217,476.6538 232.809312,192.6902 0,495.2739 341.51374,659.2021 401.42463,192.6902 380.46375,-192.6892 742.80794,-91.2739 235.52584,0 235.52584,405.6629 706.57574,283.9641 425.575,-109.9551 235.5265,-425.9465 552.577,-578.0695 280.8189,-202.8313 461.9923,70.9903 797.1617,-334.6726 317.2362,-383.9599 -135.8789,-588.2114 -108.703,-1054.7236 72.4683,-436.0876 443.8738,-689.62759 172.1145,-1216.98943 -235.5247,-344.81378 -272.9782,-646.28708 -707.7939,-707.13612 -371.4036,-152.12378 -352.0685,-124.47319 -759.7069,-195.46431 -434.8164,-121.69896 -277.017,-43.41853 -630.30483,-43.41853 z M 867.246,1087.817 c -147.16669,-247.15028 -532.23114,-247.15028 -679.39778,0 -98.11727,164.7602 -98.11727,342.3189 0,507.0789 147.16664,247.1497 532.23109,247.1497 679.39778,0 98.12355,-164.76 98.12355,-342.3187 0,-507.0789 z"
     id="path55"
     style="stroke-width:19.1697"
     sodipodi:nodetypes="cccccscscscccccccccccsccccc" />
</svg>
